<?xml version="1.0" standalone="no"?>
<!DOCTYPE svg PUBLIC "-//W3C//DTD SVG 20010904//EN"
 "http://www.w3.org/TR/2001/REC-SVG-20010904/DTD/svg10.dtd">
<svg version="1.0" xmlns="http://www.w3.org/2000/svg"
 width="128.000000pt" height="128.000000pt" viewBox="0 0 128.000000 128.000000"
 preserveAspectRatio="xMidYMid meet">

<g transform="translate(0.000000,128.000000) scale(0.100000,-0.100000)"
fill="#000000" stroke="none">
<path d="M705 1048 c-51 -57 -152 -206 -262 -388 -45 -73 -80 -120 -99 -131
-22 -12 -29 -23 -29 -45 0 -16 -19 -72 -43 -125 -23 -53 -42 -110 -42 -127 0
-41 40 -72 91 -72 34 0 43 5 67 38 15 21 44 77 65 124 38 85 39 86 80 92 35 4
220 20 251 21 5 0 21 -36 36 -80 46 -137 91 -205 138 -205 32 0 82 52 82 84 0
15 -12 54 -26 89 -24 60 -100 378 -143 600 -23 120 -31 139 -63 161 -36 25
-53 19 -103 -36z m35 -363 c11 -54 19 -99 18 -100 -2 -2 -41 -6 -87 -10 l-84
-7 25 43 c64 114 102 178 105 176 1 -2 12 -48 23 -102z"/>
</g>
</svg>
